<svg id="Capa_1" enable-background="new 0 0 512 512" height="512" viewBox="0 0 512 512" width="512" xmlns="http://www.w3.org/2000/svg" xmlns:xlink="http://www.w3.org/1999/xlink"><linearGradient id="SVGID_1_" gradientUnits="userSpaceOnUse" x1="256" x2="256" y1="512" y2="0"><stop offset="0" stop-color="#addcff"/><stop offset=".5028" stop-color="#eaf6ff"/><stop offset="1" stop-color="#eaf6ff"/></linearGradient><linearGradient id="SVGID_2_" gradientUnits="userSpaceOnUse" x1="256" x2="256" y1="408.612" y2="104.998"><stop offset="0" stop-color="#00c0ff"/><stop offset="1" stop-color="#5558ff"/></linearGradient><g><circle cx="256" cy="256" fill="url(#SVGID_1_)" r="256"/><g fill="url(#SVGID_2_)"><path d="m247.006 409.5h17.988c4.971 0 8.994-4.023 8.994-8.994v-81.547h17.988c3.408 0 6.517-1.924 8.046-4.971 1.52-3.048 1.195-6.693-.852-9.416l-35.977-53.965c-1.695-2.266-4.365-3.601-7.194-3.601-2.828 0-5.498 1.335-7.194 3.601l-35.977 53.965c-2.047 2.723-2.372 6.368-.852 9.416 1.528 3.048 4.638 4.971 8.046 4.971h17.988v81.547c.002 4.971 4.024 8.994 8.996 8.994z"/><path d="m372.478 195.966c.703-4.146 1.045-8.054 1.045-11.919 0-44.637-36.91-81.547-81.547-81.547-28.511 0-54.87 15.292-69.38 39.604-6.71-2.407-13.597-3.628-20.562-3.628-32.419 0-59.799 25.237-63.119 57.498-21.466 7.387-36.416 27.834-36.416 51.031 0 29.758 24.207 53.965 53.965 53.965h38.19c.904-2.534 2.119-4.978 3.797-7.211l35.388-53.13c5.63-7.571 13.702-11.612 22.16-11.612s16.53 4.04 21.598 10.812l36.539 54.764c1.451 1.919 2.557 4.082 3.37 6.377h38.029c29.758 0 53.965-24.207 53.965-53.965 0-23.363-15.371-43.846-37.022-51.039z"/></g></g></svg>