<svg id="Capa_1" enable-background="new 0 0 512 512" height="512" viewBox="0 0 512 512" width="512" xmlns="http://www.w3.org/2000/svg" xmlns:xlink="http://www.w3.org/1999/xlink"><linearGradient id="SVGID_1_" gradientUnits="userSpaceOnUse" x1="256" x2="256" y1="512" y2="0"><stop offset="0" stop-color="#ffc8d1"/><stop offset="1" stop-color="#fff6f7"/></linearGradient><linearGradient id="lg1"><stop offset="0" stop-color="#ffa68d"/><stop offset="1" stop-color="#fd3a84"/></linearGradient><linearGradient id="SVGID_2_" gradientUnits="userSpaceOnUse" x1="351.625" x2="351.625" xlink:href="#lg1" y1="418.503" y2="93.407"/><linearGradient id="SVGID_3_" gradientUnits="userSpaceOnUse" x1="219.424" x2="219.424" xlink:href="#lg1" y1="418.503" y2="93.407"/><g><circle cx="256" cy="256" fill="url(#SVGID_1_)" r="256"/><g><path d="m331.905 293.751c-10.034 15.133-23.022 28.121-38.155 38.155l74.96 74.96c3.513 3.513 9.205 3.513 12.718 0l25.437-25.437c3.513-3.513 3.513-9.205 0-12.718z" fill="url(#SVGID_2_)"/><path d="m219.424 336.348c64.47 0 116.924-52.454 116.924-116.924s-52.454-116.924-116.924-116.924-116.924 52.454-116.924 116.924 52.454 116.924 116.924 116.924zm-35.977-125.918h71.953c4.971 0 8.994 4.023 8.994 8.994s-4.023 8.994-8.994 8.994h-71.953c-4.971 0-8.994-4.023-8.994-8.994s4.023-8.994 8.994-8.994z" fill="url(#SVGID_3_)"/></g></g></svg>