<svg id="Capa_1" enable-background="new 0 0 512 512" height="512" viewBox="0 0 512 512" width="512" xmlns="http://www.w3.org/2000/svg" xmlns:xlink="http://www.w3.org/1999/xlink"><linearGradient id="SVGID_1_" gradientUnits="userSpaceOnUse" x1="256" x2="256" y1="512" y2="0"><stop offset="0" stop-color="#c3ffe8"/><stop offset=".9973" stop-color="#f0fff4"/></linearGradient><linearGradient id="lg1"><stop offset="0" stop-color="#83f3a9"/><stop offset="1" stop-color="#00b59c"/></linearGradient><linearGradient id="SVGID_2_" gradientUnits="userSpaceOnUse" x1="219.424" x2="219.424" xlink:href="#lg1" y1="485.436" y2="93.958"/><linearGradient id="SVGID_3_" gradientUnits="userSpaceOnUse" x1="351.625" x2="351.625" xlink:href="#lg1" y1="485.436" y2="93.958"/><g><circle cx="256" cy="256" fill="url(#SVGID_1_)" r="256"/><g><path d="m336.348 219.424c0-64.47-52.454-116.924-116.924-116.924s-116.924 52.454-116.924 116.924 52.454 116.924 116.924 116.924 116.924-52.454 116.924-116.924zm-125.918 35.976v-26.982h-26.982c-4.971 0-8.994-4.023-8.994-8.994s4.023-8.994 8.994-8.994h26.982v-26.982c0-4.971 4.023-8.994 8.994-8.994s8.994 4.023 8.994 8.994v26.982h26.982c4.971 0 8.994 4.023 8.994 8.994s-4.023 8.994-8.994 8.994h-26.982v26.982c0 4.971-4.023 8.994-8.994 8.994s-8.994-4.022-8.994-8.994z" fill="url(#SVGID_2_)"/><path d="m331.905 293.751c-10.034 15.133-23.022 28.121-38.155 38.155l74.96 74.96c3.513 3.513 9.205 3.513 12.718 0l25.437-25.437c3.513-3.513 3.513-9.205 0-12.718z" fill="url(#SVGID_3_)"/></g></g></svg>